<svg xmlns="http://www.w3.org/2000/svg" viewBox="0 0 1024 1024">
  <defs><clipPath id="m"><path d="M512,410 C585,366 700,322 912,250 C884,346 892,428 852,524 C816,606 740,654 658,654 C598,654 568,606 512,580 C456,606 426,654 366,654 C284,654 208,606 172,524 C132,428 140,346 112,250 C324,322 439,366 512,410 Z"/></clipPath><clipPath id="b"><path d="M622,170 L1100,170 L1100,790 L402,790 Z"/></clipPath></defs>
  <rect width="1024" height="1024" rx="200" fill="#0B0B12"/>
  <g transform="translate(-30 -20) scale(1.06)">
    <path d="M512,410 C585,366 700,322 912,250 C884,346 892,428 852,524 C816,606 740,654 658,654 C598,654 568,606 512,580 C456,606 426,654 366,654 C284,654 208,606 172,524 C132,428 140,346 112,250 C324,322 439,366 512,410 Z" fill="#000" transform="translate(14 20)"/>
    <g clip-path="url(#m)"><rect width="1024" height="1024" fill="#5B2A86"/><g clip-path="url(#b)"><rect width="1024" height="1024" fill="#1E90FF"/></g>
      <path d="M622.0,170.0 L539.2,179.6 L577.4,243.6 L509.3,259.8 L553.7,308.0 L476.1,323.8 L533.7,374.4 L456.3,377.1 L514.0,442.5 L418.8,460.6 L475.2,524.5 L437.9,543.1 L460.7,591.9 L404.5,604.6 L435.3,644.2 L356.1,654.8 L407.6,713.6 L338.8,729.4 L388.4,785.2 L402.0,790.0 Z" fill="#7CFF3A" stroke="#000" stroke-width="14"/></g>
    <path d="M512,410 C585,366 700,322 912,250 C884,346 892,428 852,524 C816,606 740,654 658,654 C598,654 568,606 512,580 C456,606 426,654 366,654 C284,654 208,606 172,524 C132,428 140,346 112,250 C324,322 439,366 512,410 Z" fill="none" stroke="#000" stroke-width="44" stroke-linejoin="round"/>
    <path d="M458,498 C428,436 330,414 252,442 C274,508 372,540 458,498 Z" fill="#07070C" stroke="#000" stroke-width="26"/><path d="M566,498 C596,436 694,414 772,442 C750,508 652,540 566,498 Z" fill="#07070C" stroke="#000" stroke-width="26"/>
  </g>
</svg>